<svg width="256" height="256" viewBox="0 0 256 256" fill="none" xmlns="http://www.w3.org/2000/svg">
  <defs>
    <linearGradient id="bg" x1="32" y1="24" x2="224" y2="232" gradientUnits="userSpaceOnUse">
      <stop offset="0" stop-color="#0F766E" />
      <stop offset="0.55" stop-color="#0891B2" />
      <stop offset="1" stop-color="#1D4ED8" />
    </linearGradient>
    <linearGradient id="flow" x1="82" y1="64" x2="170" y2="192" gradientUnits="userSpaceOnUse">
      <stop offset="0" stop-color="#F8FAFC" />
      <stop offset="1" stop-color="#BFDBFE" />
    </linearGradient>
  </defs>

  <rect x="20" y="20" width="216" height="216" rx="56" fill="url(#bg)" />
  <rect x="32" y="32" width="192" height="192" rx="44" stroke="white" stroke-opacity="0.14" stroke-width="2" />

  <circle cx="76" cy="76" r="10" fill="#F8FAFC" />
  <path d="M76 112C95.8823 112 112 95.8823 112 76" stroke="#F8FAFC" stroke-width="11" stroke-linecap="round" stroke-opacity="0.95" />
  <path d="M76 146C114.66 146 146 114.66 146 76" stroke="#F8FAFC" stroke-width="11" stroke-linecap="round" stroke-opacity="0.76" />

  <path d="M140 74L103 74C91.9543 74 83 82.9543 83 94V132C83 143.046 91.9543 152 103 152H126V176C126 180.856 131.87 183.289 135.305 179.858L177.164 138.043C179.117 136.092 179.117 132.925 177.164 130.974L135.305 89.1588C131.87 85.7281 126 88.1609 126 93.017V116H105" fill="url(#flow)" />
  <path d="M140 74L103 74C91.9543 74 83 82.9543 83 94V132C83 143.046 91.9543 152 103 152H126V176C126 180.856 131.87 183.289 135.305 179.858L177.164 138.043C179.117 136.092 179.117 132.925 177.164 130.974L135.305 89.1588C131.87 85.7281 126 88.1609 126 93.017V116H105" stroke="#EFF6FF" stroke-width="6" stroke-linejoin="round" />

  <path d="M62 190H194" stroke="white" stroke-opacity="0.18" stroke-width="8" stroke-linecap="round" />
  <path d="M78 190H142" stroke="white" stroke-opacity="0.45" stroke-width="8" stroke-linecap="round" />
</svg>
